<mxfile host="app.diagrams.net" agent="Mozilla/5.0 (Windows NT 10.0; Win64; x64) AppleWebKit/537.36 (KHTML, like Gecko) Chrome/129.0.0.0 Safari/537.36" version="24.7.17">
  <diagram name="Page-1" id="D4dacfvg8AqOOUY9pIJG">
    <mxGraphModel dx="1050" dy="529" grid="1" gridSize="10" guides="1" tooltips="1" connect="1" arrows="1" fold="1" page="1" pageScale="1" pageWidth="827" pageHeight="1169" math="0" shadow="0">
      <root>
        <mxCell id="0" />
        <mxCell id="1" parent="0" />
        <mxCell id="ZowrctoJMfURWsrX6wnS-1" value="Login Page" style="rounded=0;whiteSpace=wrap;html=1;" vertex="1" parent="1">
          <mxGeometry x="40" y="40" width="100" height="60" as="geometry" />
        </mxCell>
        <mxCell id="ZowrctoJMfURWsrX6wnS-6" value="" style="endArrow=classic;html=1;rounded=0;" edge="1" parent="1">
          <mxGeometry width="50" height="50" relative="1" as="geometry">
            <mxPoint x="140" y="69.5" as="sourcePoint" />
            <mxPoint x="200" y="69.5" as="targetPoint" />
            <Array as="points">
              <mxPoint x="160" y="69.5" />
              <mxPoint x="170" y="69.5" />
            </Array>
          </mxGeometry>
        </mxCell>
        <mxCell id="ZowrctoJMfURWsrX6wnS-7" value="Home Page" style="rounded=0;whiteSpace=wrap;html=1;" vertex="1" parent="1">
          <mxGeometry x="200" y="40" width="100" height="60" as="geometry" />
        </mxCell>
        <mxCell id="ZowrctoJMfURWsrX6wnS-8" value="" style="endArrow=classic;html=1;rounded=0;" edge="1" parent="1">
          <mxGeometry width="50" height="50" relative="1" as="geometry">
            <mxPoint x="300" y="69.5" as="sourcePoint" />
            <mxPoint x="360" y="69.5" as="targetPoint" />
            <Array as="points">
              <mxPoint x="320" y="69.5" />
              <mxPoint x="330" y="69.5" />
            </Array>
          </mxGeometry>
        </mxCell>
        <mxCell id="ZowrctoJMfURWsrX6wnS-9" value="Task Page" style="rounded=0;whiteSpace=wrap;html=1;" vertex="1" parent="1">
          <mxGeometry x="360" y="40" width="100" height="60" as="geometry" />
        </mxCell>
        <mxCell id="ZowrctoJMfURWsrX6wnS-10" value="" style="endArrow=classic;html=1;rounded=0;" edge="1" parent="1">
          <mxGeometry width="50" height="50" relative="1" as="geometry">
            <mxPoint x="249.5" y="100" as="sourcePoint" />
            <mxPoint x="249.5" y="160" as="targetPoint" />
          </mxGeometry>
        </mxCell>
        <mxCell id="ZowrctoJMfURWsrX6wnS-11" value="Header" style="rounded=0;whiteSpace=wrap;html=1;" vertex="1" parent="1">
          <mxGeometry x="40" y="160" width="100" height="60" as="geometry" />
        </mxCell>
        <mxCell id="ZowrctoJMfURWsrX6wnS-12" value="" style="endArrow=classic;html=1;rounded=0;" edge="1" parent="1">
          <mxGeometry width="50" height="50" relative="1" as="geometry">
            <mxPoint x="140" y="189.5" as="sourcePoint" />
            <mxPoint x="200" y="189.5" as="targetPoint" />
            <Array as="points">
              <mxPoint x="160" y="189.5" />
              <mxPoint x="170" y="189.5" />
            </Array>
          </mxGeometry>
        </mxCell>
        <mxCell id="ZowrctoJMfURWsrX6wnS-13" value="Content" style="rounded=0;whiteSpace=wrap;html=1;" vertex="1" parent="1">
          <mxGeometry x="200" y="160" width="100" height="60" as="geometry" />
        </mxCell>
        <mxCell id="ZowrctoJMfURWsrX6wnS-14" value="" style="endArrow=classic;html=1;rounded=0;" edge="1" parent="1">
          <mxGeometry width="50" height="50" relative="1" as="geometry">
            <mxPoint x="300" y="189.5" as="sourcePoint" />
            <mxPoint x="360" y="189.5" as="targetPoint" />
            <Array as="points">
              <mxPoint x="320" y="189.5" />
              <mxPoint x="330" y="189.5" />
            </Array>
          </mxGeometry>
        </mxCell>
        <mxCell id="ZowrctoJMfURWsrX6wnS-15" value="Footer" style="rounded=0;whiteSpace=wrap;html=1;" vertex="1" parent="1">
          <mxGeometry x="360" y="160" width="100" height="60" as="geometry" />
        </mxCell>
      </root>
    </mxGraphModel>
  </diagram>
</mxfile>
